<svg xmlns="http://www.w3.org/2000/svg" width="505" height="689" fill="none"><mask id="a" width="503" height="689" x="2" y="0" maskUnits="userSpaceOnUse" style="mask-type:alpha"><path fill="#D9D9D9" d="M0 0h503v689H0z" style="fill:#d9d9d9;fill:color(display-p3 .851 .851 .851);fill-opacity:1" transform="matrix(-1 0 0 1 505 0)"/></mask><g mask="url(#a)" opacity=".4"><mask id="c" width="359" height="911" x="0" y="-179" maskUnits="userSpaceOnUse" style="mask-type:alpha"><path fill="url(#b)" d="M359-179v911H0v-911z"/></mask><g stroke="#E03131" mask="url(#c)"><path d="M0-.5h985.349" style="stroke:#e03131;stroke:color(display-p3 .8784 .1922 .1922);stroke-opacity:1" transform="matrix(0 1 1 0 325.998 147.002)"/><path d="M0-.5h985.349" style="stroke:#e03131;stroke:color(display-p3 .8784 .1922 .1922);stroke-opacity:1" transform="matrix(0 1 1 0 277.998 147.002)"/><path d="M0-.5h985.349" style="stroke:#e03131;stroke:color(display-p3 .8784 .1922 .1922);stroke-opacity:1" transform="matrix(0 1 1 0 229.998 147.002)"/><path d="M0-.5h985.349" style="stroke:#e03131;stroke:color(display-p3 .8784 .1922 .1922);stroke-opacity:1" transform="matrix(0 1 1 0 181.998 147.002)"/><path d="M0-.5h985.349" style="stroke:#e03131;stroke:color(display-p3 .8784 .1922 .1922);stroke-opacity:1" transform="matrix(0 1 1 0 133.998 147.002)"/><path d="M0-.5h985.349" style="stroke:#e03131;stroke:color(display-p3 .8784 .1922 .1922);stroke-opacity:1" transform="matrix(0 1 1 0 85.998 147.002)"/><path d="M0-.5h985.349" style="stroke:#e03131;stroke:color(display-p3 .8784 .1922 .1922);stroke-opacity:1" transform="matrix(0 1 1 0 37.998 147.002)"/><path d="M0-.5h985.349" style="stroke:#e03131;stroke:color(display-p3 .8784 .1922 .1922);stroke-opacity:1" transform="matrix(1 0 0 -1 -159.346 191.002)"/><path d="M0-.5h985.349" style="stroke:#e03131;stroke:color(display-p3 .8784 .1922 .1922);stroke-opacity:1" transform="matrix(1 0 0 -1 -159.346 239.002)"/><path d="M0-.5h985.349" style="stroke:#e03131;stroke:color(display-p3 .8784 .1922 .1922);stroke-opacity:1" transform="matrix(1 0 0 -1 -159.346 287.002)"/><path d="M0-.5h985.349" style="stroke:#e03131;stroke:color(display-p3 .8784 .1922 .1922);stroke-opacity:1" transform="matrix(1 0 0 -1 -159.346 335.002)"/><path d="M0-.5h985.349" style="stroke:#e03131;stroke:color(display-p3 .8784 .1922 .1922);stroke-opacity:1" transform="matrix(1 0 0 -1 -159.346 383.002)"/><path d="M0-.5h985.349" style="stroke:#e03131;stroke:color(display-p3 .8784 .1922 .1922);stroke-opacity:1" transform="matrix(1 0 0 -1 -159.346 431.002)"/><path d="M0-.5h985.349" style="stroke:#e03131;stroke:color(display-p3 .8784 .1922 .1922);stroke-opacity:1" transform="matrix(1 0 0 -1 -159.346 479.002)"/><path d="M0-.5h985.349" style="stroke:#e03131;stroke:color(display-p3 .8784 .1922 .1922);stroke-opacity:1" transform="matrix(1 0 0 -1 -159.346 527.002)"/><path d="M0-.5h985.349" style="stroke:#e03131;stroke:color(display-p3 .8784 .1922 .1922);stroke-opacity:1" transform="matrix(1 0 0 -1 -159.346 575.002)"/><path d="M0-.5h985.349" style="stroke:#e03131;stroke:color(display-p3 .8784 .1922 .1922);stroke-opacity:1" transform="matrix(1 0 0 -1 -159.346 623.002)"/><path d="M0-.5h985.349" style="stroke:#e03131;stroke:color(display-p3 .8784 .1922 .1922);stroke-opacity:1" transform="matrix(1 0 0 -1 -159.346 671.002)"/><path d="M0-.5h985.349" style="stroke:#e03131;stroke:color(display-p3 .8784 .1922 .1922);stroke-opacity:1" transform="matrix(0 1 1 0 326 -428.998)"/><path d="M0-.5h985.349" style="stroke:#e03131;stroke:color(display-p3 .8784 .1922 .1922);stroke-opacity:1" transform="matrix(0 1 1 0 278 -428.998)"/><path d="M0-.5h985.349" style="stroke:#e03131;stroke:color(display-p3 .8784 .1922 .1922);stroke-opacity:1" transform="matrix(0 1 1 0 230 -428.998)"/><path d="M0-.5h985.349" style="stroke:#e03131;stroke:color(display-p3 .8784 .1922 .1922);stroke-opacity:1" transform="matrix(0 1 1 0 182 -428.998)"/><path d="M0-.5h985.349" style="stroke:#e03131;stroke:color(display-p3 .8784 .1922 .1922);stroke-opacity:1" transform="matrix(0 1 1 0 134 -428.998)"/><path d="M0-.5h985.349" style="stroke:#e03131;stroke:color(display-p3 .8784 .1922 .1922);stroke-opacity:1" transform="matrix(0 1 1 0 86 -428.998)"/><path d="M0-.5h985.349" style="stroke:#e03131;stroke:color(display-p3 .8784 .1922 .1922);stroke-opacity:1" transform="matrix(0 1 1 0 38 -428.998)"/><path d="M0-.5h985.349" style="stroke:#e03131;stroke:color(display-p3 .8784 .1922 .1922);stroke-opacity:1" transform="matrix(1 0 0 -1 -159.346 -.998)"/><path d="M0-.5h985.349" style="stroke:#e03131;stroke:color(display-p3 .8784 .1922 .1922);stroke-opacity:1" transform="matrix(1 0 0 -1 -159.346 47.002)"/><path d="M0-.5h985.349" style="stroke:#e03131;stroke:color(display-p3 .8784 .1922 .1922);stroke-opacity:1" transform="matrix(1 0 0 -1 -159.346 95.002)"/><path d="M0-.5h985.349" style="stroke:#e03131;stroke:color(display-p3 .8784 .1922 .1922);stroke-opacity:1" transform="matrix(1 0 0 -1 -159.346 143.002)"/><path d="M0-.5h985.349" style="stroke:#e03131;stroke:color(display-p3 .8784 .1922 .1922);stroke-opacity:1" transform="matrix(1 0 0 -1 -159.346 191.002)"/></g></g><mask id="e" width="190" height="240" x="0" y="79" maskUnits="userSpaceOnUse" style="mask-type:alpha"><path fill="url(#d)" d="M0 79h190v240H0z"/></mask><g mask="url(#e)"><circle cx="133" cy="192" r="48" fill="#E03131" opacity=".1" style="fill:#e03131;fill:color(display-p3 .8784 .1922 .1922);fill-opacity:1"/><path stroke="#E03131" stroke-width="4" d="M134 192H0" style="stroke:#e03131;stroke:color(display-p3 .8784 .1922 .1922);stroke-opacity:1"/><circle cx="14.5" cy="14.5" r="14.5" fill="red" fill-opacity=".12" style="fill:red;fill:color(display-p3 1 0 0);fill-opacity:.12" transform="matrix(0 -1 -1 0 148 207)"/><path fill="#fff" stroke="#E03131" stroke-width="4" d="M133.5 183a9.5 9.5 0 0 0-9.5 9.5 9.5 9.5 0 0 0 9.5 9.5 9.5 9.5 0 0 0 9.5-9.5 9.5 9.5 0 0 0-9.5-9.5Z" style="fill:#fff;fill-opacity:1;stroke:#e03131;stroke:color(display-p3 .8784 .1922 .1922);stroke-opacity:1"/></g><defs><radialGradient id="b" cx="0" cy="0" r="1" gradientTransform="matrix(-.14646 346.75997 -136.64899 -.05772 128.841 324.829)" gradientUnits="userSpaceOnUse"><stop stop-color="#fff" style="stop-color:white;stop-opacity:1"/><stop offset="1" stop-color="#fff" stop-opacity="0" style="stop-color:none;stop-opacity:0"/></radialGradient><linearGradient id="d" x1="67.5" x2="0" y1="199" y2="199" gradientUnits="userSpaceOnUse"><stop stop-color="#fff" style="stop-color:white;stop-opacity:1"/><stop offset="1" stop-color="#fff" stop-opacity="0" style="stop-color:none;stop-opacity:0"/></linearGradient></defs></svg>