<svg xmlns="http://www.w3.org/2000/svg" width="742" height="689" fill="none"><mask id="a" width="725" height="623" x="18" y="26" maskUnits="userSpaceOnUse" style="mask-type:alpha"><path fill="#D9D9D9" d="M18 26h725v623H18z" style="fill:#d9d9d9;fill:color(display-p3 .851 .851 .851);fill-opacity:1"/></mask><g mask="url(#a)" opacity=".4"><mask id="c" width="1226" height="754" x="-29" y="-65" maskUnits="userSpaceOnUse" style="mask-type:alpha"><path fill="url(#b)" d="M1197-65v754H-29V-65z"/></mask><g stroke="#E03131" mask="url(#c)"><path d="M28.5 146v985.35M76.5 146v985.35M124.5 146v985.35M172.5 146v985.35M220.5 146v985.35M268.5 146v985.35M316.5 146v985.35M364.5 146v985.35M412.5 146v985.35M460.5 146v985.35M508.5 146v985.35M556.5 146v985.35M604.5 146v985.35M652.5 146v985.35M700.5 146v985.35M897.348 190.5H-88.001M897.348 238.5H-88.001M897.348 286.5H-88.001M897.348 334.5H-88.001M897.348 382.5H-88.001M897.348 430.5H-88.001M897.348 478.5H-88.001M897.348 526.5H-88.001M897.348 574.5H-88.001M897.348 622.5H-88.001" style="stroke:#e03131;stroke:color(display-p3 .8784 .1922 .1922);stroke-opacity:1"/></g></g><mask id="e" width="741" height="689" x="0" y="0" maskUnits="userSpaceOnUse" style="mask-type:alpha"><path fill="url(#d)" d="M0 0h741v689H0z"/></mask><g mask="url(#e)"><mask id="g" width="740" height="689" x="3" y="0" maskUnits="userSpaceOnUse" style="mask-type:alpha"><path fill="url(#f)" d="M743 689h740v689H743z" transform="rotate(-180 743 689)"/></mask><g mask="url(#g)"><rect width="67.175" height="67.882" x="509" y="50" fill="#E03131" opacity=".1" rx="10" style="fill:#e03131;fill:color(display-p3 .8784 .1922 .1922);fill-opacity:1" transform="rotate(45 509 50)"/><rect width="67.175" height="67.882" x="186" y="494" fill="#E03131" opacity=".1" rx="10" style="fill:#e03131;fill:color(display-p3 .8784 .1922 .1922);fill-opacity:1"/><rect width="67.175" height="67.882" x="474" y="491" fill="#E03131" opacity=".1" rx="10" style="fill:#e03131;fill:color(display-p3 .8784 .1922 .1922);fill-opacity:1"/><circle cx="76" cy="240" r="48" fill="#E03131" opacity=".1" style="fill:#e03131;fill:color(display-p3 .8784 .1922 .1922);fill-opacity:1"/><circle cx="746.5" cy="95.5" r="95.5" fill="#E03131" opacity=".1" style="fill:#e03131;fill:color(display-p3 .8784 .1922 .1922);fill-opacity:1"/><path stroke="#E03131" stroke-width="4" d="M378 241h126c55.781 0 101-45.219 101-101v-40M509 431H172" style="stroke:#e03131;stroke:color(display-p3 .8784 .1922 .1922);stroke-opacity:1"/><path stroke="#E03131" stroke-linecap="round" stroke-width="4" d="M604 431h-81M497 527h-83" style="stroke:#e03131;stroke:color(display-p3 .8784 .1922 .1922);stroke-opacity:1"/><path stroke="#E03131" stroke-width="4" d="M741 241H413" style="stroke:#e03131;stroke:color(display-p3 .8784 .1922 .1922);stroke-opacity:1"/><path fill="red" fill-opacity=".12" d="M324.76 90.046c0-3.849-4.167-6.255-7.5-4.33l-16.157 9.329c-3.334 1.924-3.334 6.735 0 8.66l16.157 9.328c3.334 1.925 7.5-.481 7.5-4.33z" style="fill:red;fill:color(display-p3 1 0 0);fill-opacity:.12"/><path fill="#E03131" d="M321.81 89.968c0-1.54-1.667-2.502-3-1.732l-16.059 9.272c-1.333.77-1.333 2.694 0 3.464l16.059 9.271c1.333.77 3-.192 3-1.732z" style="fill:#e03131;fill:color(display-p3 .8784 .1922 .1922);fill-opacity:1"/><path stroke="#E03131" stroke-width="4" d="M604 575v41" style="stroke:#e03131;stroke:color(display-p3 .8784 .1922 .1922);stroke-opacity:1"/><rect width="29" height="29" fill="red" fill-opacity=".12" rx="6" style="fill:red;fill:color(display-p3 1 0 0);fill-opacity:.12" transform="matrix(0 -1 -1 0 618 636)"/><rect width="23" height="23" fill="#E03131" rx="4" style="fill:#e03131;fill:color(display-p3 .8784 .1922 .1922);fill-opacity:1" transform="matrix(0 -1 -1 0 615 633)"/><rect width="29" height="29" fill="red" fill-opacity=".12" rx="6" style="fill:red;fill:color(display-p3 1 0 0);fill-opacity:.12" transform="scale(1 -1)rotate(45 571.019 484.018)"/><rect width="19" height="19" y="-2.828" fill="#fff" stroke="#E03131" stroke-width="4" rx="2" style="fill:#fff;fill-opacity:1;stroke:#e03131;stroke:color(display-p3 .8784 .1922 .1922);stroke-opacity:1" transform="scale(1 -1)rotate(45 559.07 486.139)"/><path stroke="#E03131" stroke-width="4" d="M741 527h-89c-26.51 0-48 21.49-48 48M316 623h2c53.019 0 96-42.981 96-96M363 239v-93c0-26.51-21.49-48-48-48" style="stroke:#e03131;stroke:color(display-p3 .8784 .1922 .1922);stroke-opacity:1"/><path fill="red" fill-opacity=".12" d="M182.76 183.046c0-3.849-4.167-6.255-7.5-4.33l-16.157 9.329c-3.334 1.924-3.334 6.735 0 8.66l16.157 9.328c3.334 1.925 7.5-.481 7.5-4.33z" style="fill:red;fill:color(display-p3 1 0 0);fill-opacity:.12"/><path fill="#E03131" d="M179.81 182.968c0-1.54-1.667-2.502-3-1.732l-16.059 9.272c-1.333.769-1.333 2.694 0 3.464l16.059 9.271c1.333.77 3-.192 3-1.732z" style="fill:#e03131;fill:color(display-p3 .8784 .1922 .1922);fill-opacity:1"/><path stroke="#E03131" stroke-width="4" d="M414 241H269" style="stroke:#e03131;stroke:color(display-p3 .8784 .1922 .1922);stroke-opacity:1"/><path stroke="#E03131" stroke-dasharray="4 8" stroke-linecap="round" stroke-width="4" d="M265 241H97M363 282v-34M364 423v-34M406 527h-77" style="stroke:#e03131;stroke:color(display-p3 .8784 .1922 .1922);stroke-opacity:1"/><path stroke="#E03131" stroke-width="4" d="M172 193h47c26.51 0 48 21.49 48 48M172 289h47c26.51 0 48-21.49 48-48" style="stroke:#e03131;stroke:color(display-p3 .8784 .1922 .1922);stroke-opacity:1"/><rect width="29" height="29" fill="red" fill-opacity=".12" rx="6" style="fill:red;fill:color(display-p3 1 0 0);fill-opacity:.12" transform="scale(1 -1)rotate(45 459.96 52.016)"/><rect width="19" height="19" y="-2.828" fill="#fff" stroke="#E03131" stroke-width="4" rx="2" style="fill:#fff;fill-opacity:1;stroke:#e03131;stroke:color(display-p3 .8784 .1922 .1922);stroke-opacity:1" transform="scale(1 -1)rotate(45 448.01 54.137)"/><circle cx="14.5" cy="14.5" r="14.5" fill="red" fill-opacity=".12" style="fill:red;fill:color(display-p3 1 0 0);fill-opacity:.12" transform="matrix(0 -1 -1 0 91 255)"/><path fill="#fff" stroke="#E03131" stroke-width="4" d="M76.5 231a9.5 9.5 0 0 0-9.5 9.5 9.5 9.5 0 0 0 9.5 9.5 9.5 9.5 0 0 0 9.5-9.5 9.5 9.5 0 0 0-9.5-9.5Z" style="fill:#fff;fill-opacity:1;stroke:#e03131;stroke:color(display-p3 .8784 .1922 .1922);stroke-opacity:1"/><circle cx="14.5" cy="14.5" r="14.5" fill="red" fill-opacity=".12" style="fill:red;fill:color(display-p3 1 0 0);fill-opacity:.12" transform="matrix(0 -1 -1 0 523 541)"/><path fill="#fff" stroke="#E03131" stroke-width="4" d="M508.5 517a9.5 9.5 0 0 0-9.5 9.5 9.5 9.5 0 0 0 9.5 9.5 9.5 9.5 0 0 0 9.5-9.5 9.5 9.5 0 0 0-9.5-9.5Z" style="fill:#fff;fill-opacity:1;stroke:#e03131;stroke:color(display-p3 .8784 .1922 .1922);stroke-opacity:1"/><path fill="#fff" stroke="#E03131" stroke-width="4" d="M508.5 517a9.5 9.5 0 0 0-9.5 9.5 9.5 9.5 0 0 0 9.5 9.5 9.5 9.5 0 0 0 9.5-9.5 9.5 9.5 0 0 0-9.5-9.5Z" style="fill:#fff;fill-opacity:1;stroke:#e03131;stroke:color(display-p3 .8784 .1922 .1922);stroke-opacity:1"/><path stroke="#E03131" stroke-width="4" d="m415 430-99 98M747 99H521" style="stroke:#e03131;stroke:color(display-p3 .8784 .1922 .1922);stroke-opacity:1"/><circle cx="14.5" cy="14.5" r="14.5" fill="red" fill-opacity=".12" style="fill:red;fill:color(display-p3 1 0 0);fill-opacity:.12" transform="matrix(0 -1 -1 0 524 113)"/><path fill="#fff" stroke="#E03131" stroke-width="4" d="M509.5 89a9.5 9.5 0 0 0-9.5 9.5 9.5 9.5 0 0 0 9.5 9.5 9.5 9.5 0 0 0 9.5-9.5 9.5 9.5 0 0 0-9.5-9.5Z" style="fill:#fff;fill-opacity:1;stroke:#e03131;stroke:color(display-p3 .8784 .1922 .1922);stroke-opacity:1"/><path fill="red" fill-opacity=".12" d="M175.76 421.046c0-3.849-4.167-6.254-7.5-4.33l-16.157 9.329c-3.334 1.924-3.334 6.736 0 8.66l16.157 9.329c3.334 1.924 7.5-.481 7.5-4.33z" style="fill:red;fill:color(display-p3 1 0 0);fill-opacity:.12"/><path fill="#E03131" d="M172.81 420.968c0-1.54-1.667-2.502-3-1.732l-16.059 9.272c-1.333.769-1.333 2.694 0 3.464l16.059 9.271c1.333.77 3-.192 3-1.732z" style="fill:#e03131;fill:color(display-p3 .8784 .1922 .1922);fill-opacity:1"/><path stroke="#E03131" stroke-linecap="round" stroke-width="4" d="M509 421v20M220 517v20" style="stroke:#e03131;stroke:color(display-p3 .8784 .1922 .1922);stroke-opacity:1"/><path stroke="#E03131" stroke-width="4" d="M604 431c13.255 0 24 10.745 24 24M700 431c13.255 0 24 10.745 24 24M748 478c-13.255 0-24-10.745-24-24M700 431c-13.255 0-24 10.745-24 24M652 479c-13.255 0-24-10.745-24-24M676 455c0 13.255-10.745 24-24 24M318 527h-98" style="stroke:#e03131;stroke:color(display-p3 .8784 .1922 .1922);stroke-opacity:1"/><path stroke="#E03131" stroke-linecap="round" stroke-width="4" d="M316 612v20M418 334h-20" style="stroke:#e03131;stroke:color(display-p3 .8784 .1922 .1922);stroke-opacity:1"/><path fill="#E03131" fill-rule="evenodd" d="M405.975 336q.025-.747.025-1.5c0-24.024-19.476-43.5-43.5-43.5-17.12 0-31.93 9.89-39.029 24.269L320 313.75l-.179-.125C327.548 297.857 343.756 287 362.5 287c26.234 0 47.5 21.266 47.5 47.5q0 .753-.023 1.5zm-.319 4c-2.704 21.428-20.995 38-43.156 38-24.024 0-43.5-19.476-43.5-43.5 0-3.001.304-5.931.883-8.761l-3.883-.906.02-.171A47.7 47.7 0 0 0 315 334.5c0 26.234 21.266 47.5 47.5 47.5 24.373 0 44.459-18.357 47.185-42z" clip-rule="evenodd" style="fill:#e03131;fill:color(display-p3 .8784 .1922 .1922);fill-opacity:1"/><path fill="red" fill-opacity=".12" d="M326.954 344.761c3.849 0 6.255-4.167 4.33-7.5l-9.328-16.158c-1.925-3.333-6.736-3.333-8.661 0l-9.328 16.158c-1.925 3.333.481 7.5 4.33 7.5z" style="fill:red;fill:color(display-p3 1 0 0);fill-opacity:.12"/><path fill="#E03131" d="M327.032 341.811c1.539 0 2.501-1.667 1.732-3l-9.272-16.06c-.77-1.333-2.694-1.333-3.464 0l-9.272 16.06c-.77 1.333.192 3 1.732 3z" style="fill:#e03131;fill:color(display-p3 .8784 .1922 .1922);fill-opacity:1"/><rect width="67.175" height="67.882" x="651" y="286" fill="#E03131" opacity=".1" rx="10" style="fill:#e03131;fill:color(display-p3 .8784 .1922 .1922);fill-opacity:1" transform="rotate(45 651 286)"/><path stroke="#E03131" stroke-linecap="round" stroke-width="4" d="M743 334H437" style="stroke:#e03131;stroke:color(display-p3 .8784 .1922 .1922);stroke-opacity:1"/><circle cx="14.5" cy="14.5" r="14.5" fill="red" fill-opacity=".12" style="fill:red;fill:color(display-p3 1 0 0);fill-opacity:.12" transform="matrix(0 -1 -1 0 666 349)"/><path fill="#fff" stroke="#E03131" stroke-width="4" d="M651.5 325a9.5 9.5 0 0 0-9.5 9.5 9.5 9.5 0 0 0 9.5 9.5 9.5 9.5 0 0 0 9.5-9.5 9.5 9.5 0 0 0-9.5-9.5Z" style="fill:#fff;fill-opacity:1;stroke:#e03131;stroke:color(display-p3 .8784 .1922 .1922);stroke-opacity:1"/></g></g><defs><radialGradient id="b" cx="0" cy="0" r="1" gradientTransform="rotate(90.1 29.805 381.141)scale(287 466.661)" gradientUnits="userSpaceOnUse"><stop stop-color="#fff" style="stop-color:white;stop-opacity:1"/><stop offset="1" stop-color="#fff" stop-opacity="0" style="stop-color:none;stop-opacity:0"/></radialGradient><radialGradient id="d" cx="0" cy="0" r="1" gradientTransform="matrix(0 280 -301.132 0 371 366)" gradientUnits="userSpaceOnUse"><stop stop-color="#fff" style="stop-color:white;stop-opacity:1"/><stop offset="1" stop-color="#fff" style="stop-color:white;stop-opacity:1"/></radialGradient><linearGradient id="f" x1="803" x2="743" y1="1033.5" y2="1033.5" gradientUnits="userSpaceOnUse"><stop stop-color="#fff" style="stop-color:white;stop-opacity:1"/><stop offset="1" stop-color="#fff" stop-opacity="0" style="stop-color:none;stop-opacity:0"/></linearGradient></defs></svg>